<svg id="diagram" width="100%" xmlns="http://www.w3.org/2000/svg" style="max-width: 1136px;" viewBox="-50 -40 1136 1321" aria-roledescription="sequence" height="1321" preserveAspectRatio="xMinYMin"><style>#diagram{font-family:"trebuchet ms",verdana,arial,sans-serif;font-size:16px;fill:#ccc;}#diagram .error-icon{fill:#a44141;}#diagram .error-text{fill:#ddd;stroke:#ddd;}#diagram .edge-thickness-normal{stroke-width:2px;}#diagram .edge-thickness-thick{stroke-width:3.5px;}#diagram .edge-pattern-solid{stroke-dasharray:0;}#diagram .edge-pattern-dashed{stroke-dasharray:3;}#diagram .edge-pattern-dotted{stroke-dasharray:2;}#diagram .marker{fill:lightgrey;stroke:lightgrey;}#diagram .marker.cross{stroke:lightgrey;}#diagram svg{font-family:"trebuchet ms",verdana,arial,sans-serif;font-size:16px;}#diagram .actor{stroke:#81B1DB;fill:#1f2020;}#diagram text.actor&gt;tspan{fill:lightgrey;stroke:none;}#diagram .actor-line{stroke:lightgrey;}#diagram .messageLine0{stroke-width:1.5;stroke-dasharray:none;stroke:lightgrey;}#diagram .messageLine1{stroke-width:1.5;stroke-dasharray:2,2;stroke:lightgrey;}#diagram #arrowhead path{fill:lightgrey;stroke:lightgrey;}#diagram .sequenceNumber{fill:black;}#diagram #sequencenumber{fill:lightgrey;}#diagram #crosshead path{fill:lightgrey;stroke:lightgrey;}#diagram .messageText{fill:lightgrey;stroke:none;}#diagram .labelBox{stroke:#81B1DB;fill:#1f2020;}#diagram .labelText,#diagram .labelText&gt;tspan{fill:lightgrey;stroke:none;}#diagram .loopText,#diagram .loopText&gt;tspan{fill:lightgrey;stroke:none;}#diagram .loopLine{stroke-width:2px;stroke-dasharray:2,2;stroke:#81B1DB;fill:#81B1DB;}#diagram .note{stroke:hsl(180, 0%, 18.3529411765%);fill:hsl(180, 1.5873015873%, 28.3529411765%);}#diagram .noteText,#diagram .noteText&gt;tspan{fill:rgb(183.8476190475, 181.5523809523, 181.5523809523);stroke:none;}#diagram .activation0{fill:hsl(180, 1.5873015873%, 28.3529411765%);stroke:#81B1DB;}#diagram .activation1{fill:hsl(180, 1.5873015873%, 28.3529411765%);stroke:#81B1DB;}#diagram .activation2{fill:hsl(180, 1.5873015873%, 28.3529411765%);stroke:#81B1DB;}#diagram .actorPopupMenu{position:absolute;}#diagram .actorPopupMenuPanel{position:absolute;fill:#1f2020;box-shadow:0px 8px 16px 0px rgba(0,0,0,0.2);filter:drop-shadow(3px 5px 2px rgb(0 0 0 / 0.4));}#diagram .actor-man line{stroke:#81B1DB;fill:#1f2020;}#diagram .actor-man circle,#diagram line{stroke:#81B1DB;fill:#1f2020;stroke-width:2px;}#diagram :root{--mermaid-font-family:"trebuchet ms",verdana,arial,sans-serif;}</style><g/><defs><symbol id="computer" width="24" height="24"><path transform="scale(.5)" d="M2 2v13h20v-13h-20zm18 11h-16v-9h16v9zm-10.228 6l.466-1h3.524l.467 1h-4.457zm14.228 3h-24l2-6h2.104l-1.33 4h18.45l-1.297-4h2.073l2 6zm-5-10h-14v-7h14v7z"/></symbol></defs><defs><symbol id="database" fill-rule="evenodd" clip-rule="evenodd"><path transform="scale(.5)" d="M12.258.001l.256.004.255.005.253.008.251.01.249.012.247.015.246.016.242.019.241.02.239.023.236.024.233.027.231.028.229.031.225.032.223.034.22.036.217.038.214.04.211.041.208.043.205.045.201.046.198.048.194.05.191.051.187.053.183.054.18.056.175.057.172.059.168.06.163.061.16.063.155.064.15.066.074.033.073.033.071.034.07.034.069.035.068.035.067.035.066.035.064.036.064.036.062.036.06.036.06.037.058.037.058.037.055.038.055.038.053.038.052.038.051.039.05.039.048.039.047.039.045.04.044.04.043.04.041.04.04.041.039.041.037.041.036.041.034.041.033.042.032.042.03.042.029.042.027.042.026.043.024.043.023.043.021.043.02.043.018.044.017.043.015.044.013.044.012.044.011.045.009.044.007.045.006.045.004.045.002.045.001.045v17l-.001.045-.002.045-.004.045-.006.045-.007.045-.009.044-.011.045-.012.044-.013.044-.015.044-.017.043-.018.044-.02.043-.021.043-.023.043-.024.043-.026.043-.027.042-.029.042-.03.042-.032.042-.033.042-.034.041-.036.041-.037.041-.039.041-.04.041-.041.04-.043.04-.044.04-.045.04-.047.039-.048.039-.05.039-.051.039-.052.038-.053.038-.055.038-.055.038-.058.037-.058.037-.06.037-.06.036-.062.036-.064.036-.064.036-.066.035-.067.035-.068.035-.069.035-.07.034-.071.034-.073.033-.074.033-.15.066-.155.064-.16.063-.163.061-.168.06-.172.059-.175.057-.18.056-.183.054-.187.053-.191.051-.194.05-.198.048-.201.046-.205.045-.208.043-.211.041-.214.04-.217.038-.22.036-.223.034-.225.032-.229.031-.231.028-.233.027-.236.024-.239.023-.241.02-.242.019-.246.016-.247.015-.249.012-.251.01-.253.008-.255.005-.256.004-.258.001-.258-.001-.256-.004-.255-.005-.253-.008-.251-.01-.249-.012-.247-.015-.245-.016-.243-.019-.241-.02-.238-.023-.236-.024-.234-.027-.231-.028-.228-.031-.226-.032-.223-.034-.22-.036-.217-.038-.214-.04-.211-.041-.208-.043-.204-.045-.201-.046-.198-.048-.195-.05-.19-.051-.187-.053-.184-.054-.179-.056-.176-.057-.172-.059-.167-.06-.164-.061-.159-.063-.155-.064-.151-.066-.074-.033-.072-.033-.072-.034-.07-.034-.069-.035-.068-.035-.067-.035-.066-.035-.064-.036-.063-.036-.062-.036-.061-.036-.06-.037-.058-.037-.057-.037-.056-.038-.055-.038-.053-.038-.052-.038-.051-.039-.049-.039-.049-.039-.046-.039-.046-.04-.044-.04-.043-.04-.041-.04-.04-.041-.039-.041-.037-.041-.036-.041-.034-.041-.033-.042-.032-.042-.03-.042-.029-.042-.027-.042-.026-.043-.024-.043-.023-.043-.021-.043-.02-.043-.018-.044-.017-.043-.015-.044-.013-.044-.012-.044-.011-.045-.009-.044-.007-.045-.006-.045-.004-.045-.002-.045-.001-.045v-17l.001-.045.002-.045.004-.045.006-.045.007-.045.009-.044.011-.045.012-.044.013-.044.015-.044.017-.043.018-.044.02-.043.021-.043.023-.043.024-.043.026-.043.027-.042.029-.042.03-.042.032-.042.033-.042.034-.041.036-.041.037-.041.039-.041.04-.041.041-.04.043-.04.044-.04.046-.04.046-.039.049-.039.049-.039.051-.039.052-.038.053-.038.055-.038.056-.038.057-.037.058-.037.06-.037.061-.036.062-.036.063-.036.064-.036.066-.035.067-.035.068-.035.069-.035.07-.034.072-.034.072-.033.074-.033.151-.066.155-.064.159-.063.164-.061.167-.06.172-.059.176-.057.179-.056.184-.054.187-.053.19-.051.195-.05.198-.048.201-.046.204-.045.208-.043.211-.041.214-.04.217-.038.22-.036.223-.034.226-.032.228-.031.231-.028.234-.027.236-.024.238-.023.241-.02.243-.019.245-.016.247-.015.249-.012.251-.01.253-.008.255-.005.256-.004.258-.001.258.001zm-9.258 20.499v.01l.001.021.003.021.004.022.005.021.006.022.007.022.009.023.01.022.011.023.012.023.013.023.015.023.016.024.017.023.018.024.019.024.021.024.022.025.023.024.024.025.052.049.056.05.061.051.066.051.07.051.075.051.079.052.084.052.088.052.092.052.097.052.102.051.105.052.11.052.114.051.119.051.123.051.127.05.131.05.135.05.139.048.144.049.147.047.152.047.155.047.16.045.163.045.167.043.171.043.176.041.178.041.183.039.187.039.19.037.194.035.197.035.202.033.204.031.209.03.212.029.216.027.219.025.222.024.226.021.23.02.233.018.236.016.24.015.243.012.246.01.249.008.253.005.256.004.259.001.26-.001.257-.004.254-.005.25-.008.247-.011.244-.012.241-.014.237-.016.233-.018.231-.021.226-.021.224-.024.22-.026.216-.027.212-.028.21-.031.205-.031.202-.034.198-.034.194-.036.191-.037.187-.039.183-.04.179-.04.175-.042.172-.043.168-.044.163-.045.16-.046.155-.046.152-.047.148-.048.143-.049.139-.049.136-.05.131-.05.126-.05.123-.051.118-.052.114-.051.11-.052.106-.052.101-.052.096-.052.092-.052.088-.053.083-.051.079-.052.074-.052.07-.051.065-.051.06-.051.056-.05.051-.05.023-.024.023-.025.021-.024.02-.024.019-.024.018-.024.017-.024.015-.023.014-.024.013-.023.012-.023.01-.023.01-.022.008-.022.006-.022.006-.022.004-.022.004-.021.001-.021.001-.021v-4.127l-.077.055-.08.053-.083.054-.085.053-.087.052-.09.052-.093.051-.095.05-.097.05-.1.049-.102.049-.105.048-.106.047-.109.047-.111.046-.114.045-.115.045-.118.044-.12.043-.122.042-.124.042-.126.041-.128.04-.13.04-.132.038-.134.038-.135.037-.138.037-.139.035-.142.035-.143.034-.144.033-.147.032-.148.031-.15.03-.151.03-.153.029-.154.027-.156.027-.158.026-.159.025-.161.024-.162.023-.163.022-.165.021-.166.02-.167.019-.169.018-.169.017-.171.016-.173.015-.173.014-.175.013-.175.012-.177.011-.178.01-.179.008-.179.008-.181.006-.182.005-.182.004-.184.003-.184.002h-.37l-.184-.002-.184-.003-.182-.004-.182-.005-.181-.006-.179-.008-.179-.008-.178-.01-.176-.011-.176-.012-.175-.013-.173-.014-.172-.015-.171-.016-.17-.017-.169-.018-.167-.019-.166-.02-.165-.021-.163-.022-.162-.023-.161-.024-.159-.025-.157-.026-.156-.027-.155-.027-.153-.029-.151-.03-.15-.03-.148-.031-.146-.032-.145-.033-.143-.034-.141-.035-.14-.035-.137-.037-.136-.037-.134-.038-.132-.038-.13-.04-.128-.04-.126-.041-.124-.042-.122-.042-.12-.044-.117-.043-.116-.045-.113-.045-.112-.046-.109-.047-.106-.047-.105-.048-.102-.049-.1-.049-.097-.05-.095-.05-.093-.052-.09-.051-.087-.052-.085-.053-.083-.054-.08-.054-.077-.054v4.127zm0-5.654v.011l.001.021.003.021.004.021.005.022.006.022.007.022.009.022.01.022.011.023.012.023.013.023.015.024.016.023.017.024.018.024.019.024.021.024.022.024.023.025.024.024.052.05.056.05.061.05.066.051.07.051.075.052.079.051.084.052.088.052.092.052.097.052.102.052.105.052.11.051.114.051.119.052.123.05.127.051.131.05.135.049.139.049.144.048.147.048.152.047.155.046.16.045.163.045.167.044.171.042.176.042.178.04.183.04.187.038.19.037.194.036.197.034.202.033.204.032.209.03.212.028.216.027.219.025.222.024.226.022.23.02.233.018.236.016.24.014.243.012.246.01.249.008.253.006.256.003.259.001.26-.001.257-.003.254-.006.25-.008.247-.01.244-.012.241-.015.237-.016.233-.018.231-.02.226-.022.224-.024.22-.025.216-.027.212-.029.21-.03.205-.032.202-.033.198-.035.194-.036.191-.037.187-.039.183-.039.179-.041.175-.042.172-.043.168-.044.163-.045.16-.045.155-.047.152-.047.148-.048.143-.048.139-.05.136-.049.131-.05.126-.051.123-.051.118-.051.114-.052.11-.052.106-.052.101-.052.096-.052.092-.052.088-.052.083-.052.079-.052.074-.051.07-.052.065-.051.06-.05.056-.051.051-.049.023-.025.023-.024.021-.025.02-.024.019-.024.018-.024.017-.024.015-.023.014-.023.013-.024.012-.022.01-.023.01-.023.008-.022.006-.022.006-.022.004-.021.004-.022.001-.021.001-.021v-4.139l-.077.054-.08.054-.083.054-.085.052-.087.053-.09.051-.093.051-.095.051-.097.05-.1.049-.102.049-.105.048-.106.047-.109.047-.111.046-.114.045-.115.044-.118.044-.12.044-.122.042-.124.042-.126.041-.128.04-.13.039-.132.039-.134.038-.135.037-.138.036-.139.036-.142.035-.143.033-.144.033-.147.033-.148.031-.15.03-.151.03-.153.028-.154.028-.156.027-.158.026-.159.025-.161.024-.162.023-.163.022-.165.021-.166.02-.167.019-.169.018-.169.017-.171.016-.173.015-.173.014-.175.013-.175.012-.177.011-.178.009-.179.009-.179.007-.181.007-.182.005-.182.004-.184.003-.184.002h-.37l-.184-.002-.184-.003-.182-.004-.182-.005-.181-.007-.179-.007-.179-.009-.178-.009-.176-.011-.176-.012-.175-.013-.173-.014-.172-.015-.171-.016-.17-.017-.169-.018-.167-.019-.166-.02-.165-.021-.163-.022-.162-.023-.161-.024-.159-.025-.157-.026-.156-.027-.155-.028-.153-.028-.151-.03-.15-.03-.148-.031-.146-.033-.145-.033-.143-.033-.141-.035-.14-.036-.137-.036-.136-.037-.134-.038-.132-.039-.13-.039-.128-.04-.126-.041-.124-.042-.122-.043-.12-.043-.117-.044-.116-.044-.113-.046-.112-.046-.109-.046-.106-.047-.105-.048-.102-.049-.1-.049-.097-.05-.095-.051-.093-.051-.09-.051-.087-.053-.085-.052-.083-.054-.08-.054-.077-.054v4.139zm0-5.666v.011l.001.02.003.022.004.021.005.022.006.021.007.022.009.023.01.022.011.023.012.023.013.023.015.023.016.024.017.024.018.023.019.024.021.025.022.024.023.024.024.025.052.05.056.05.061.05.066.051.07.051.075.052.079.051.084.052.088.052.092.052.097.052.102.052.105.051.11.052.114.051.119.051.123.051.127.05.131.05.135.05.139.049.144.048.147.048.152.047.155.046.16.045.163.045.167.043.171.043.176.042.178.04.183.04.187.038.19.037.194.036.197.034.202.033.204.032.209.03.212.028.216.027.219.025.222.024.226.021.23.02.233.018.236.017.24.014.243.012.246.01.249.008.253.006.256.003.259.001.26-.001.257-.003.254-.006.25-.008.247-.01.244-.013.241-.014.237-.016.233-.018.231-.02.226-.022.224-.024.22-.025.216-.027.212-.029.21-.03.205-.032.202-.033.198-.035.194-.036.191-.037.187-.039.183-.039.179-.041.175-.042.172-.043.168-.044.163-.045.16-.045.155-.047.152-.047.148-.048.143-.049.139-.049.136-.049.131-.051.126-.05.123-.051.118-.052.114-.051.11-.052.106-.052.101-.052.096-.052.092-.052.088-.052.083-.052.079-.052.074-.052.07-.051.065-.051.06-.051.056-.05.051-.049.023-.025.023-.025.021-.024.02-.024.019-.024.018-.024.017-.024.015-.023.014-.024.013-.023.012-.023.01-.022.01-.023.008-.022.006-.022.006-.022.004-.022.004-.021.001-.021.001-.021v-4.153l-.077.054-.08.054-.083.053-.085.053-.087.053-.09.051-.093.051-.095.051-.097.05-.1.049-.102.048-.105.048-.106.048-.109.046-.111.046-.114.046-.115.044-.118.044-.12.043-.122.043-.124.042-.126.041-.128.04-.13.039-.132.039-.134.038-.135.037-.138.036-.139.036-.142.034-.143.034-.144.033-.147.032-.148.032-.15.03-.151.03-.153.028-.154.028-.156.027-.158.026-.159.024-.161.024-.162.023-.163.023-.165.021-.166.02-.167.019-.169.018-.169.017-.171.016-.173.015-.173.014-.175.013-.175.012-.177.01-.178.01-.179.009-.179.007-.181.006-.182.006-.182.004-.184.003-.184.001-.185.001-.185-.001-.184-.001-.184-.003-.182-.004-.182-.006-.181-.006-.179-.007-.179-.009-.178-.01-.176-.01-.176-.012-.175-.013-.173-.014-.172-.015-.171-.016-.17-.017-.169-.018-.167-.019-.166-.02-.165-.021-.163-.023-.162-.023-.161-.024-.159-.024-.157-.026-.156-.027-.155-.028-.153-.028-.151-.03-.15-.03-.148-.032-.146-.032-.145-.033-.143-.034-.141-.034-.14-.036-.137-.036-.136-.037-.134-.038-.132-.039-.13-.039-.128-.041-.126-.041-.124-.041-.122-.043-.12-.043-.117-.044-.116-.044-.113-.046-.112-.046-.109-.046-.106-.048-.105-.048-.102-.048-.1-.05-.097-.049-.095-.051-.093-.051-.09-.052-.087-.052-.085-.053-.083-.053-.08-.054-.077-.054v4.153zm8.74-8.179l-.257.004-.254.005-.25.008-.247.011-.244.012-.241.014-.237.016-.233.018-.231.021-.226.022-.224.023-.22.026-.216.027-.212.028-.21.031-.205.032-.202.033-.198.034-.194.036-.191.038-.187.038-.183.04-.179.041-.175.042-.172.043-.168.043-.163.045-.16.046-.155.046-.152.048-.148.048-.143.048-.139.049-.136.05-.131.05-.126.051-.123.051-.118.051-.114.052-.11.052-.106.052-.101.052-.096.052-.092.052-.088.052-.083.052-.079.052-.074.051-.07.052-.065.051-.06.05-.056.05-.051.05-.023.025-.023.024-.021.024-.02.025-.019.024-.018.024-.017.023-.015.024-.014.023-.013.023-.012.023-.01.023-.01.022-.008.022-.006.023-.006.021-.004.022-.004.021-.001.021-.001.021.001.021.001.021.004.021.004.022.006.021.006.023.008.022.01.022.01.023.012.023.013.023.014.023.015.024.017.023.018.024.019.024.02.025.021.024.023.024.023.025.051.05.056.05.06.05.065.051.07.052.074.051.079.052.083.052.088.052.092.052.096.052.101.052.106.052.11.052.114.052.118.051.123.051.126.051.131.05.136.05.139.049.143.048.148.048.152.048.155.046.16.046.163.045.168.043.172.043.175.042.179.041.183.04.187.038.191.038.194.036.198.034.202.033.205.032.21.031.212.028.216.027.22.026.224.023.226.022.231.021.233.018.237.016.241.014.244.012.247.011.25.008.254.005.257.004.26.001.26-.001.257-.004.254-.005.25-.008.247-.011.244-.012.241-.014.237-.016.233-.018.231-.021.226-.022.224-.023.22-.026.216-.027.212-.028.21-.031.205-.032.202-.033.198-.034.194-.036.191-.038.187-.038.183-.04.179-.041.175-.042.172-.043.168-.043.163-.045.16-.046.155-.046.152-.048.148-.048.143-.048.139-.049.136-.05.131-.05.126-.051.123-.051.118-.051.114-.052.11-.052.106-.052.101-.052.096-.052.092-.052.088-.052.083-.052.079-.052.074-.051.07-.052.065-.051.06-.05.056-.05.051-.05.023-.025.023-.024.021-.024.02-.025.019-.024.018-.024.017-.023.015-.024.014-.023.013-.023.012-.023.01-.023.01-.022.008-.022.006-.023.006-.021.004-.022.004-.021.001-.021.001-.021-.001-.021-.001-.021-.004-.021-.004-.022-.006-.021-.006-.023-.008-.022-.01-.022-.01-.023-.012-.023-.013-.023-.014-.023-.015-.024-.017-.023-.018-.024-.019-.024-.02-.025-.021-.024-.023-.024-.023-.025-.051-.05-.056-.05-.06-.05-.065-.051-.07-.052-.074-.051-.079-.052-.083-.052-.088-.052-.092-.052-.096-.052-.101-.052-.106-.052-.11-.052-.114-.052-.118-.051-.123-.051-.126-.051-.131-.05-.136-.05-.139-.049-.143-.048-.148-.048-.152-.048-.155-.046-.16-.046-.163-.045-.168-.043-.172-.043-.175-.042-.179-.041-.183-.04-.187-.038-.191-.038-.194-.036-.198-.034-.202-.033-.205-.032-.21-.031-.212-.028-.216-.027-.22-.026-.224-.023-.226-.022-.231-.021-.233-.018-.237-.016-.241-.014-.244-.012-.247-.011-.25-.008-.254-.005-.257-.004-.26-.001-.26.001z"/></symbol></defs><defs><symbol id="clock" width="24" height="24"><path transform="scale(.5)" d="M12 2c5.514 0 10 4.486 10 10s-4.486 10-10 10-10-4.486-10-10 4.486-10 10-10zm0-2c-6.627 0-12 5.373-12 12s5.373 12 12 12 12-5.373 12-12-5.373-12-12-12zm5.848 12.459c.202.038.202.333.001.372-1.907.361-6.045 1.111-6.547 1.111-.719 0-1.301-.582-1.301-1.301 0-.512.77-5.447 1.125-7.445.034-.192.312-.181.343.014l.985 6.238 5.394 1.011z"/></symbol></defs><line id="actor0" x1="75" y1="80" x2="75" y2="1195" class="200" stroke-width="0.5px" stroke="#999"/><g class="actor-man"><line id="actor-man-torso0" x1="75" y1="25" x2="75" y2="45"/><line id="actor-man-arms0" x1="57" y1="33" x2="93" y2="33"/><line x1="57" y1="60" x2="75" y2="45"/><line x1="75" y1="45" x2="91" y2="60"/><circle cx="75" cy="10" r="15" width="150" height="65"/><text x="75" y="67.5" alignment-baseline="central" class="actor" style="text-anchor: middle; font-size: 16px; font-weight: 400;"><tspan x="75" dy="0">Bob</tspan></text></g><line id="actor1" x1="275" y1="80" x2="275" y2="1195" class="200" stroke-width="0.5px" stroke="#999"/><g class="actor-man"><line id="actor-man-torso1" x1="275" y1="25" x2="275" y2="45"/><line id="actor-man-arms1" x1="257" y1="33" x2="293" y2="33"/><line x1="257" y1="60" x2="275" y2="45"/><line x1="275" y1="45" x2="291" y2="60"/><circle cx="275" cy="10" r="15" width="150" height="65"/><text x="275" y="67.5" alignment-baseline="central" class="actor" style="text-anchor: middle; font-size: 16px; font-weight: 400;"><tspan x="275" dy="0">Alice</tspan></text></g><g><line id="actor2" x1="484.5" y1="5" x2="484.5" y2="1195" class="200" stroke-width="0.5px" stroke="#999"/><g id="root-2"><rect x="400" y="0" fill="#eaeaea" stroke="#666" width="169" height="65" rx="3" ry="3" class="actor"/><text x="484.5" y="32.5" alignment-baseline="central" class="actor" style="text-anchor: middle; font-size: 16px; font-weight: 400;"><tspan x="484.5" dy="0">Frontend Framework</tspan></text></g></g><g><line id="actor3" x1="727.5" y1="5" x2="727.5" y2="1195" class="200" stroke-width="0.5px" stroke="#999"/><g id="root-3"><rect x="619" y="0" fill="#eaeaea" stroke="#666" width="217" height="65" rx="3" ry="3" class="actor"/><text x="727.5" y="32.5" alignment-baseline="central" class="actor" style="text-anchor: middle; font-size: 16px; font-weight: 400;"><tspan x="727.5" dy="0">ConvenienceSmartContract</tspan></text></g></g><g><line id="actor4" x1="961" y1="5" x2="961" y2="1195" class="200" stroke-width="0.5px" stroke="#999"/><g id="root-4"><rect x="886" y="0" fill="#eaeaea" stroke="#666" width="150" height="65" rx="3" ry="3" class="actor"/><text x="961" y="32.5" alignment-baseline="central" class="actor" style="text-anchor: middle; font-size: 16px; font-weight: 400;"><tspan x="961" dy="0">CartesiInput</tspan></text></g></g><defs><marker id="arrowhead" refX="9" refY="5" markerUnits="userSpaceOnUse" markerWidth="12" markerHeight="12" orient="auto"><path d="M 0 0 L 10 5 L 0 10 z"/></marker></defs><defs><marker id="crosshead" markerWidth="15" markerHeight="8" orient="auto" refX="4" refY="5"><path fill="none" stroke="#000000" stroke-width="1pt" d="M 1,2 L 6,7 M 6,2 L 1,7" style="stroke-dasharray: 0, 0;"/></marker></defs><defs><marker id="filled-head" refX="18" refY="7" markerWidth="20" markerHeight="28" orient="auto"><path d="M 18,7 L9,13 L14,7 L9,1 Z"/></marker></defs><defs><marker id="sequencenumber" refX="15" refY="15" markerWidth="60" markerHeight="40" orient="auto"><circle cx="15" cy="15" r="6"/></marker></defs><g/><g><rect x="484.5" y="111" fill="#EDF2AE" stroke="#666" width="10" height="1044" rx="0" ry="0" class="activation1"/></g><g><rect x="722.5" y="233" fill="#EDF2AE" stroke="#666" width="10" height="42" rx="0" ry="0" class="activation0"/></g><g><rect x="489.5" y="365" fill="#EDF2AE" stroke="#666" width="10" height="746" rx="0" ry="0" class="activation2"/></g><g><rect x="722.5" y="487" fill="#EDF2AE" stroke="#666" width="10" height="42" rx="0" ry="0" class="activation0"/></g><g><rect x="722.5" y="621" fill="#EDF2AE" stroke="#666" width="10" height="116" rx="0" ry="0" class="activation0"/></g><g><rect x="722.5" y="785" fill="#EDF2AE" stroke="#666" width="10" height="282" rx="0" ry="0" class="activation0"/></g><g><rect x="956" y="981" fill="#EDF2AE" stroke="#666" width="10" height="42" rx="0" ry="0" class="activation0"/></g><text x="85" y="80" text-anchor="start" alignment-baseline="middle" class="messageText" dy="1em" style="font-size: 16px; font-weight: 400;">Bob's move</text><line x1="75" y1="109" x2="484.5" y2="109" class="messageLine0" stroke-width="2" stroke="none" marker-end="url(#arrowhead)" marker-start="url(#sequencenumber)" style="fill: none;"/><text x="75" y="113" font-family="sans-serif" font-size="12px" text-anchor="middle" class="sequenceNumber">1</text><text x="505" y="124" text-anchor="start" alignment-baseline="middle" class="messageText" dy="1em" style="font-size: 16px; font-weight: 400;">bob_hash = hash(bob_seed)</text><path d="M 494.5,155 C 554.5,145 554.5,185 494.5,175" class="messageLine0" stroke-width="2" stroke="none" marker-end="url(#arrowhead)" marker-start="url(#sequencenumber)" style="fill: none;"/><text x="494.5" y="159" font-family="sans-serif" font-size="12px" text-anchor="middle" class="sequenceNumber">2</text><text x="505" y="200" text-anchor="start" alignment-baseline="middle" class="messageText" dy="1em" style="font-size: 16px; font-weight: 400;">save bob_hash</text><line x1="494.5" y1="231" x2="727.5" y2="231" class="messageLine0" stroke-width="2" stroke="none" marker-end="url(#arrowhead)" marker-start="url(#sequencenumber)" style="fill: none;"/><text x="494.5" y="235" font-family="sans-serif" font-size="12px" text-anchor="middle" class="sequenceNumber">3</text><text x="733" y="246" text-anchor="start" alignment-baseline="middle" class="messageText" dy="1em" style="font-size: 16px; font-weight: 400;">saved</text><line x1="722.5" y1="275" x2="494.5" y2="275" class="messageLine0" stroke-width="2" stroke="none" marker-end="url(#arrowhead)" marker-start="url(#sequencenumber)" style="fill: none;"/><text x="722.5" y="279" font-family="sans-serif" font-size="12px" text-anchor="middle" class="sequenceNumber">4</text><text x="490" y="290" text-anchor="start" alignment-baseline="middle" class="messageText" dy="1em" style="font-size: 16px; font-weight: 400;">waiting Alice</text><line x1="479.5" y1="319" x2="75" y2="319" class="messageLine1" stroke-width="2" stroke="none" marker-end="url(#arrowhead)" marker-start="url(#sequencenumber)" style="stroke-dasharray: 3, 3; fill: none;"/><text x="479.5" y="323" font-family="sans-serif" font-size="12px" text-anchor="middle" class="sequenceNumber">5</text><text x="285" y="334" text-anchor="start" alignment-baseline="middle" class="messageText" dy="1em" style="font-size: 16px; font-weight: 400;">Alice's move</text><line x1="275" y1="363" x2="479.5" y2="363" class="messageLine0" stroke-width="2" stroke="none" marker-end="url(#arrowhead)" marker-start="url(#sequencenumber)" style="fill: none;"/><text x="275" y="367" font-family="sans-serif" font-size="12px" text-anchor="middle" class="sequenceNumber">6</text><text x="510" y="378" text-anchor="start" alignment-baseline="middle" class="messageText" dy="1em" style="font-size: 16px; font-weight: 400;">alice_hash = hash(alice_seed)</text><path d="M 499.5,409 C 559.5,399 559.5,439 499.5,429" class="messageLine0" stroke-width="2" stroke="none" marker-end="url(#arrowhead)" marker-start="url(#sequencenumber)" style="fill: none;"/><text x="499.5" y="413" font-family="sans-serif" font-size="12px" text-anchor="middle" class="sequenceNumber">7</text><text x="510" y="454" text-anchor="start" alignment-baseline="middle" class="messageText" dy="1em" style="font-size: 16px; font-weight: 400;">save alice_hash</text><line x1="499.5" y1="485" x2="727.5" y2="485" class="messageLine0" stroke-width="2" stroke="none" marker-end="url(#arrowhead)" marker-start="url(#sequencenumber)" style="fill: none;"/><text x="499.5" y="489" font-family="sans-serif" font-size="12px" text-anchor="middle" class="sequenceNumber">8</text><text x="733" y="500" text-anchor="start" alignment-baseline="middle" class="messageText" dy="1em" style="font-size: 16px; font-weight: 400;">saved</text><line x1="722.5" y1="529" x2="499.5" y2="529" class="messageLine0" stroke-width="2" stroke="none" marker-end="url(#arrowhead)" marker-start="url(#sequencenumber)" style="fill: none;"/><text x="722.5" y="533" font-family="sans-serif" font-size="12px" text-anchor="middle" class="sequenceNumber">9</text><text x="490" y="544" text-anchor="start" alignment-baseline="middle" class="messageText" dy="1em" style="font-size: 16px; font-weight: 400;">waiting seeds</text><line x1="479.5" y1="573" x2="275" y2="573" class="messageLine1" stroke-width="2" stroke="none" marker-end="url(#arrowhead)" marker-start="url(#sequencenumber)" style="stroke-dasharray: 3, 3; fill: none;"/><text x="479.5" y="577" font-family="sans-serif" font-size="12px" text-anchor="middle" class="sequenceNumber">10</text><text x="510" y="588" text-anchor="start" alignment-baseline="middle" class="messageText" dy="1em" style="font-size: 16px; font-weight: 400;">bob_seed</text><line x1="499.5" y1="619" x2="727.5" y2="619" class="messageLine0" stroke-width="2" stroke="none" marker-end="url(#arrowhead)" marker-start="url(#sequencenumber)" style="fill: none;"/><text x="499.5" y="623" font-family="sans-serif" font-size="12px" text-anchor="middle" class="sequenceNumber">11</text><text x="743" y="634" text-anchor="start" alignment-baseline="middle" class="messageText" dy="1em" style="font-size: 16px; font-weight: 400;">check(hash, seed)</text><path d="M 732.5,663 C 792.5,653 792.5,693 732.5,683" class="messageLine0" stroke-width="2" stroke="none" marker-end="url(#arrowhead)" marker-start="url(#sequencenumber)" style="fill: none;"/><text x="732.5" y="667" font-family="sans-serif" font-size="12px" text-anchor="middle" class="sequenceNumber">12</text><text x="733" y="708" text-anchor="start" alignment-baseline="middle" class="messageText" dy="1em" style="font-size: 16px; font-weight: 400;">ok</text><line x1="722.5" y1="737" x2="499.5" y2="737" class="messageLine1" stroke-width="2" stroke="none" marker-end="url(#arrowhead)" marker-start="url(#sequencenumber)" style="stroke-dasharray: 3, 3; fill: none;"/><text x="722.5" y="741" font-family="sans-serif" font-size="12px" text-anchor="middle" class="sequenceNumber">13</text><text x="510" y="752" text-anchor="start" alignment-baseline="middle" class="messageText" dy="1em" style="font-size: 16px; font-weight: 400;">alice_seed</text><line x1="499.5" y1="783" x2="727.5" y2="783" class="messageLine0" stroke-width="2" stroke="none" marker-end="url(#arrowhead)" marker-start="url(#sequencenumber)" style="fill: none;"/><text x="499.5" y="787" font-family="sans-serif" font-size="12px" text-anchor="middle" class="sequenceNumber">14</text><text x="743" y="798" text-anchor="start" alignment-baseline="middle" class="messageText" dy="1em" style="font-size: 16px; font-weight: 400;">check(hash, seed)</text><path d="M 732.5,827 C 792.5,817 792.5,857 732.5,847" class="messageLine0" stroke-width="2" stroke="none" marker-end="url(#arrowhead)" marker-start="url(#sequencenumber)" style="fill: none;"/><text x="732.5" y="831" font-family="sans-serif" font-size="12px" text-anchor="middle" class="sequenceNumber">15</text><text x="743" y="872" text-anchor="start" alignment-baseline="middle" class="messageText" dy="1em" style="font-size: 16px; font-weight: 400;">mix_seed = hash(b_seed, a_seed)</text><path d="M 732.5,903 C 792.5,893 792.5,933 732.5,923" class="messageLine0" stroke-width="2" stroke="none" marker-end="url(#arrowhead)" marker-start="url(#sequencenumber)" style="fill: none;"/><text x="732.5" y="907" font-family="sans-serif" font-size="12px" text-anchor="middle" class="sequenceNumber">16</text><text x="743" y="948" text-anchor="start" alignment-baseline="middle" class="messageText" dy="1em" style="font-size: 16px; font-weight: 400;">random(mix_seed)</text><line x1="732.5" y1="979" x2="961" y2="979" class="messageLine0" stroke-width="2" stroke="none" marker-end="url(#arrowhead)" marker-start="url(#sequencenumber)" style="fill: none;"/><text x="732.5" y="983" font-family="sans-serif" font-size="12px" text-anchor="middle" class="sequenceNumber">17</text><text x="966" y="994" text-anchor="start" alignment-baseline="middle" class="messageText" dy="1em" style="font-size: 16px; font-weight: 400;">ok</text><line x1="956" y1="1023" x2="732.5" y2="1023" class="messageLine1" stroke-width="2" stroke="none" marker-end="url(#arrowhead)" marker-start="url(#sequencenumber)" style="stroke-dasharray: 3, 3; fill: none;"/><text x="956" y="1027" font-family="sans-serif" font-size="12px" text-anchor="middle" class="sequenceNumber">18</text><text x="733" y="1038" text-anchor="start" alignment-baseline="middle" class="messageText" dy="1em" style="font-size: 16px; font-weight: 400;">ok</text><line x1="722.5" y1="1067" x2="499.5" y2="1067" class="messageLine1" stroke-width="2" stroke="none" marker-end="url(#arrowhead)" marker-start="url(#sequencenumber)" style="stroke-dasharray: 3, 3; fill: none;"/><text x="722.5" y="1071" font-family="sans-serif" font-size="12px" text-anchor="middle" class="sequenceNumber">19</text><text x="490" y="1082" text-anchor="start" alignment-baseline="middle" class="messageText" dy="1em" style="font-size: 16px; font-weight: 400;">ok</text><line x1="479.5" y1="1111" x2="275" y2="1111" class="messageLine1" stroke-width="2" stroke="none" marker-end="url(#arrowhead)" marker-start="url(#sequencenumber)" style="stroke-dasharray: 3, 3; fill: none;"/><text x="479.5" y="1115" font-family="sans-serif" font-size="12px" text-anchor="middle" class="sequenceNumber">20</text><text x="490" y="1126" text-anchor="start" alignment-baseline="middle" class="messageText" dy="1em" style="font-size: 16px; font-weight: 400;">ok</text><line x1="479.5" y1="1155" x2="75" y2="1155" class="messageLine1" stroke-width="2" stroke="none" marker-end="url(#arrowhead)" marker-start="url(#sequencenumber)" style="stroke-dasharray: 3, 3; fill: none;"/><text x="479.5" y="1159" font-family="sans-serif" font-size="12px" text-anchor="middle" class="sequenceNumber">21</text><g class="actor-man"><line id="actor-man-torso4" x1="75" y1="1200" x2="75" y2="1220"/><line id="actor-man-arms4" x1="57" y1="1208" x2="93" y2="1208"/><line x1="57" y1="1235" x2="75" y2="1220"/><line x1="75" y1="1220" x2="91" y2="1235"/><circle cx="75" cy="1185" r="15" width="150" height="65"/><text x="75" y="1242.5" alignment-baseline="central" class="actor" style="text-anchor: middle; font-size: 16px; font-weight: 400;"><tspan x="75" dy="0">Bob</tspan></text></g><g class="actor-man"><line id="actor-man-torso4" x1="275" y1="1200" x2="275" y2="1220"/><line id="actor-man-arms4" x1="257" y1="1208" x2="293" y2="1208"/><line x1="257" y1="1235" x2="275" y2="1220"/><line x1="275" y1="1220" x2="291" y2="1235"/><circle cx="275" cy="1185" r="15" width="150" height="65"/><text x="275" y="1242.5" alignment-baseline="central" class="actor" style="text-anchor: middle; font-size: 16px; font-weight: 400;"><tspan x="275" dy="0">Alice</tspan></text></g><g><rect x="400" y="1175" fill="#eaeaea" stroke="#666" width="169" height="65" rx="3" ry="3" class="actor"/><text x="484.5" y="1207.5" alignment-baseline="central" class="actor" style="text-anchor: middle; font-size: 16px; font-weight: 400;"><tspan x="484.5" dy="0">Frontend Framework</tspan></text></g><g><rect x="619" y="1175" fill="#eaeaea" stroke="#666" width="217" height="65" rx="3" ry="3" class="actor"/><text x="727.5" y="1207.5" alignment-baseline="central" class="actor" style="text-anchor: middle; font-size: 16px; font-weight: 400;"><tspan x="727.5" dy="0">ConvenienceSmartContract</tspan></text></g><g><rect x="886" y="1175" fill="#eaeaea" stroke="#666" width="150" height="65" rx="3" ry="3" class="actor"/><text x="961" y="1207.5" alignment-baseline="central" class="actor" style="text-anchor: middle; font-size: 16px; font-weight: 400;"><tspan x="961" dy="0">CartesiInput</tspan></text></g></svg>